<?xml version="1.0" encoding="utf-8"?>
<!-- Generator: Adobe Illustrator 15.0.0, SVG Export Plug-In . SVG Version: 6.00 Build 0)  -->
<!DOCTYPE svg PUBLIC "-//W3C//DTD SVG 1.1//EN" "http://www.w3.org/Graphics/SVG/1.1/DTD/svg11.dtd">
<svg version="1.1" id="Calque_1" xmlns="http://www.w3.org/2000/svg" xmlns:xlink="http://www.w3.org/1999/xlink" x="0px" y="0px"
	 width="885px" height="502.807px" viewBox="0 0 885 502.807" enable-background="new 0 0 885 502.807" xml:space="preserve">
<path d="M99.386,40.751c1.342-0.698,3.167-1.458,5.475-1.908c2.338-0.451,5.269-0.844,8.882-0.844h9.57v108.517
	c0,1.805-0.055,3.193-0.955,4.408c-0.898,1.237-1.617,2.075-3.06,3.075h35.103c-1.432-1-2.692-1.838-3.584-3.075
	c-0.904-1.215-1.503-2.604-1.503-4.408V38.346L149.29,16l-54.976-0.389v30.623c1-1.017,1.174-2.016,1.811-2.984
	C96.752,42.278,98.027,41.451,99.386,40.751z M635.313,172.279c-4-1.437-6.619-3.333-6.619-5.728c0-1.27-0.006-2.694,1.031-4.292
	c1.012-1.589,2.145-4.996,3.907-8.181L658.613,107h0.496l25.264,47.079c1.753,3.185,3.164,6.077,4.171,7.666
	c1.048,1.598,1.921,3.279,1.921,4.549c0,2.395-1.151,4.549-5.151,5.986V172h49v0.279c-3-1.27-5.717-3.066-7.785-5.38
	c-2.086-2.288-3.773-4.721-5.217-7.273l-46.507-81.102l33.397-60.827c4.175-7.313,8.111-12.087,14.111-14.321V3h-46.522
	c1.748,1,2.63,4.169,2.63,5.92c0,1.276-0.342,2.674-1.087,4.271c-0.712,1.587-1.543,2.63-2.51,4.377L658.16,47h-0.504
	l-16.677-29.442c-0.959-1.747-1.798-3.109-2.507-4.697c-0.713-1.596-1.074-2.819-1.074-4.095c0-1.751,0.869-4.765,2.622-5.765
	h-45.707v0.377c6,2.709,9.854,7.484,13.68,14.321l33.191,60.827l-44.002,81.102c-1.759,3.195-3.805,5.521-6.015,7.742
	c-2.23,2.22-4.504,2.632-6.717,4.632h50.862V172.279z M465.438,251h-3.124v90h3.124c6.173,0,11.974-1.025,17.283-3.119
	c5.349-2.123,10.019-5.188,13.897-9.158c3.828-3.921,6.856-8.617,8.963-13.933c2.089-5.294,3.179-11.192,3.179-17.547
	c0-14.246-4.089-25.889-12.198-33.867C488.473,255.396,478.034,251,465.438,251z M498.265,311.898
	c-1.735,4.355-4.176,8.179-7.26,11.355c-3.12,3.176-6.398,5.635-10.727,7.351c-3.242,1.28-6.965,2.094-9.965,2.425v-73.266
	c8,0.714,15.381,3.876,21.17,9.59c6.643,6.552,9.621,15.662,9.621,27.896C501.104,302.598,499.997,307.535,498.265,311.898z
	 M185.841,150.925c-0.896-1.215-1.527-2.604-1.527-4.408V95h44v51.517c0,1.805-0.699,3.193-1.598,4.408
	c-0.895,1.237-2.327,2.075-3.714,3.075h35.057c-1.426-1-3.029-1.838-3.929-3.075c-0.896-1.215-1.815-2.604-1.815-4.408V24.754
	c0-1.807,0.919-3.841,1.815-5.065c0.9-1.208,2.503-2.689,3.929-3.689h-35.057c1.387,1,2.82,2.48,3.714,3.689
	c0.899,1.224,1.598,3.259,1.598,5.065V72h-44V39.926l10.937-0.146c3.608,0,6.624,0.221,8.952,0.67
	c2.316,0.45,4.175,1.037,5.515,1.735c1.359,0.7,2.363,1.527,3.024,2.498c0.642,0.969,0.572,1.968,1.572,2.984l0.194-31.651
	L159.472,16l-0.159,8.754v121.762c0,1.805-0.51,3.193-1.394,4.408c-0.893,1.237-2.113,2.075-3.519,3.075h35.065
	C188.034,153,186.75,152.162,185.841,150.925z M364.737,25.808c-0.335,2.396-0.703,4.771-1.071,7.162
	c-0.413,2.383-0.671,4.292-0.84,5.721L345.159,158.44c-0.635,3.673-1.419,6.272-2.379,8.565c-0.958,2.315-2.05,2.995-3.337,4.995
	h38.404c-2.383-3-3.578-4.309-3.578-7.499c0-2.232,0.27-4.892,0.832-8.396c0.565-3.503,1.234-9.061,2.03-14.943L387.636,63h0.459
	l43.444,113h0.456l44.605-113h0.504l10.253,80.633c0.445,3.667,0.962,7.734,1.425,11.217c0.483,3.503,0.7,6.07,0.7,7.982
	c0,3.822-1.419,6.167-4.298,9.167h40.812c-1.293-2-2.377-2.68-3.337-4.995c-0.963-2.293-1.759-5.082-2.415-8.755L502.607,38.595
	c-0.332-1.429-0.621-3.29-0.963-5.673c-0.322-2.391-0.611-4.742-0.96-7.138c-0.289-2.377-0.582-4.64-0.82-6.784
	c-0.251-2.15-0.341-3.852-0.341-5.122c0-1.753,0.258-3.584,0.833-5.564C500.896,6.337,502.142,3,504.035,3h-35.068l-36.732,98
	h-0.482L395.976,3h-34.6c1.916,0,3.157,3.341,3.707,5.317c0.571,1.979,0.83,3.834,0.83,5.587c0,1.271-0.125,2.969-0.335,5.118
	C365.323,21.167,365.03,23.43,364.737,25.808z M541.447,168.438c-1.122,1.506-2.732,1.562-4.485,3.562h43.397
	c-1.749-2-2.714-2.056-3.835-3.562c-1.084-1.507-1.211-2.994-1.211-5.223V12.444c0-2.224,0.127-4.041,1.211-5.569
	C577.646,5.38,578.61,3,580.359,3h-43.397c1.753,0,3.363,2.38,4.485,3.875c1.13,1.528,1.866,3.345,1.866,5.569v150.771
	C543.313,165.444,542.577,166.931,541.447,168.438z M471.492,192.283c-5.637,0-10.916,0.351-15.694,1.009
	c-4.674,0.654-8.943,1.416-12.826,2.26c-3.694,0.817-7.163,1.542-10.35,2.187c-6.432,1.294-12.431,1.196-16.997-0.518
	c-2.562-0.965-4.842-2.342-7.05-4.099l-6.261-5.011v190.337c0,2.72-0.514,5.564-1.342,8.405c-0.768,2.629-2.144,5.178-4.145,7.311
	L390.644,401h79.775c14.271,0,27.594-3.083,39.626-8.711c11.989-5.616,22.428-13.463,30.998-23.099
	c8.531-9.557,15.257-20.819,20.033-33.337c4.714-12.52,7.136-25.892,7.136-39.69c0-12.721-2.529-25.489-7.454-37.927
	c-4.908-12.389-11.827-23.581-20.552-33.264c-8.743-9.67-19.081-17.613-30.707-23.583
	C497.709,195.353,484.927,192.283,471.492,192.283z M534.368,230.248c8.104,8.964,14.496,19.362,19.088,30.877
	c4.547,11.501,6.878,23.293,6.878,35.01c0,12.84-2.248,25.258-6.647,36.867c-4.373,11.608-10.616,21.989-18.523,30.854
	c-7.856,8.817-17.445,16.585-28.457,21.746C495.742,390.74,483.51,394,470.419,394h-63.397c0.582-2,1.209-3.062,1.582-4.31
	c1.011-3.567,1.71-7.774,1.71-11.241V203.333c1,0.465,1.759,0.89,2.743,1.262c5.972,2.224,13.308,2.446,21.202,0.864
	c3.225-0.649,6.695-1.384,10.457-2.22c3.678-0.802,7.724-1.525,12.202-2.144c4.409-0.626,9.291-0.933,14.587-0.933
	c12.167,0,23.75,2.78,34.396,8.239C516.719,213.927,526.269,221.284,534.368,230.248z M265.674,150.925
	c-0.9,1.237-1.302,2.075-2.741,3.075h63.381v-28.681c-2,1.932-2.932,2.689-4.927,3.785c-2.009,1.088-4.561,0.896-8.029,0.896
	h-20.044V95h29.091c2.704,0,4.521,1.062,6.322,1.76c1.803,0.718,3.586,2.486,4.586,3.906V69.45c-1,1.402-2.784,1.627-4.586,2.326
	c-1.801,0.704-3.619,0.225-6.322,0.225h-29.091V39h37.409c3.482,0,6.339,0.927,8.355,2.027c1.952,1.086,3.236,2.987,5.236,4.906V16
	h-81.381c1.439,1,1.841,2.48,2.741,3.689c0.905,1.224,0.64,3.259,0.64,5.065v121.762
	C266.313,148.321,266.579,149.709,265.674,150.925z M577.541,430.66c-0.546,0-1.218-0.104-2.052-0.288
	c-0.822-0.188-1.753-0.416-2.755-0.681c-0.998-0.253-2.071-0.493-3.273-0.675c-1.188-0.194-2.402-0.294-3.633-0.294
	c-5.386,0-10.354,0.893-14.8,2.698c-4.481,1.812-8.358,4.323-11.605,7.548c-3.245,3.21-5.764,6.999-7.568,11.382
	c-1.816,4.389-2.715,9.169-2.715,14.312c0,5.151,0.898,9.907,2.715,14.271c1.805,4.387,4.323,8.177,7.568,11.409
	c3.247,3.211,7.124,5.733,11.605,7.517c4.446,1.816,9.414,2.726,14.8,2.726c1.379,0,2.691-0.084,4.03-0.199
	c1.311-0.122,2.576-0.273,3.74-0.427c1.216-0.164,2.27-0.313,3.175-0.44c0.896-0.129,1.565-0.195,2.002-0.195
	c0.532,0,1.891,0.191,2.445,0.544c0.61,0.351,2.093,0.578,2.093,0.718v-21.725c-2,1.86-5.542,3.293-7.971,4.294
	c-2.448,0.993-5.76,1.488-9.104,1.488c-2.811,0-5.65-0.495-8.11-1.488c-2.462-1.001-4.67-2.414-6.479-4.221
	c-1.815-1.777-3.259-3.902-4.292-6.373c-1.047-2.441-1.569-5.083-1.569-7.897c0-3.165,0.484-5.973,1.531-8.458
	c1.033-2.481,2.42-4.581,4.236-6.283c1.809-1.704,3.911-3.01,6.374-3.906c2.457-0.912,5.091-1.35,7.898-1.35
	c3.479,0,7.282,0.588,9.721,1.783c2.438,1.18,5.765,2.754,7.765,4.671v-22.396c-1,0.52-1.933,0.969-2.599,1.34
	C580.043,430.46,578.443,430.66,577.541,430.66z M517.081,484h-18.768v-12h12.456c1.367,0,3.017,0.383,3.784,1.064
	c0.764,0.672,1.76,1.505,2.76,2.423v-21.641c-1,0.893-1.996,2.068-2.76,2.749c-0.768,0.674-2.417,1.404-3.784,1.404h-12.456v-12
	h18.477c2.892,0,5.317,1.072,7.245,3.314L530.228,431h-50.914v-0.54c1,0.653,1.971,1.552,2.305,2.707
	c0.363,1.15,0.695,2.577,0.695,4.25v54.462c0,1.881-0.236,3.876-0.604,5.092c-0.334,1.174-1.005,2.029-1.908,3.029h50.71
	l-6.167-18.82C522.406,483.432,519.998,484,517.081,484z M588.313,446.116c1-0.699,0.498-0.604,1.135-1.09
	c0.639-0.487,0.664-0.026,1.897-0.026h8.968v46.879c0,1.881-0.621,5.01-0.951,6.226c-0.373,1.18-1.412,1.896-2.322,2.896h20.766
	c-0.903-1-1.061-1.716-1.432-2.896c-0.367-1.216-0.061-4.345-0.061-6.226V445h7.174c1.237,0,3.153-0.461,3.79,0.026
	c0.637,0.485,2.036,0.391,3.036,1.09V430h-42V446.116z M789.757,395.08l-2.831,5.92h95.106l-6.702-6.938
	c-2.056-2.047-3.995-4.491-5.763-7.03c-1.73-2.486-3.325-5.858-4.611-9.134L798.778,196h-90.653l10.854,7.559
	c1.354,0.919,2.568,2.098,3.561,3.148c0.19,0.204,0.732,0.879,0.732,2.639c0,0.9-0.146,2.568-0.827,5.25
	c-0.597,2.314-1.171,4.178-1.672,5.562l-54.516,147.786c-1.979,5.299-3.938,10.257-5.864,14.904
	c-1.026,2.507-2.353,4.829-3.946,6.953c-0.476-0.941-0.755-1.921-1.048-2.954c-0.811-2.824-1.086-5.665-1.086-8.398V218.805
	c0-2.75,0.275-5.575,1.092-8.427c0.74-2.627,2.034-5.273,3.996-7.409l6.093-6.969h-92.907l6.11,6.96
	c1.992,2.135,3.979,4.616,4.743,7.234c0.812,2.877,1.873,5.874,1.873,8.611v159.644c0,2.72-1.061,5.564-1.869,8.398
	c-0.769,2.643-2.425,5.185-4.407,7.317L572.563,401h166.75v-7.603l-1.363-1.181c-0.469-0.397-0.787-1.048-1.036-1.988
	c-0.378-1.399-0.54-2.677-0.54-3.804c0-2.584,0.363-5.097,1.106-7.985c0.538-2.047,1.21-3.439,2.023-5.439h48.655
	c0.667,2,1.287,3.715,1.907,5.668c0.782,2.461,1.2,4.941,1.2,7.619c0,1.639-0.129,3.324-0.387,4.954
	C790.653,392.664,790.301,393.987,789.757,395.08z M648.276,389.681c0.355,1.258,0.268,2.319,0.806,4.319h-60.121
	c0.575-2,1.232-3.059,1.617-4.31c1.017-3.567,1.735-7.774,1.735-11.241V218.805c0-3.462-0.719-7.315-1.739-10.884
	c-0.381-1.254-1.038-2.921-1.613-3.921h60.121c-0.538,1-0.444,2.67-0.804,3.921c-1.021,3.547-0.965,7.404-0.965,10.884v159.644
	C647.313,381.922,647.257,386.149,648.276,389.681z M734.823,365l-1.115,1.774c-1.631,2.877-2.938,6.005-3.855,9.55
	c-0.911,3.535-1.349,6.917-1.349,10.151c0,1.818,0.278,4.409,0.813,6.446c0.039,0.15,0.088,1.078,0.124,1.078h-65.365
	c1.394-2,2.616-5.069,3.615-7.48c1.91-4.706,3.908-10.074,5.973-15.461l54.467-147.95c0.612-1.557,1.245-3.77,1.919-6.402
	c0.726-2.839,1.104-5.506,1.104-7.519c0-1.786-0.313-3.188-0.897-5.188h62.992l64.333,176.724c1.602,3.931,3.435,8.238,5.54,11.225
	c0.307,0.416,0.567,1.052,0.888,2.052h-65.405c0.02,0,0.043-0.956,0.07-1.106c0.318-2.018,0.473-4.382,0.473-6.405
	c0-3.492-0.543-7.076-1.604-10.351c-0.902-2.815-1.809-5.561-2.704-8.507L793.974,365H734.823z M759.756,259l-13.964,69h36.131
	l-14.648-69H759.756z M755.428,320l8.187-39.811L772.156,320H755.428z M427.421,438.933c-3.385-3.215-7.351-5.7-11.867-7.512
	c-4.472-1.806-9.2-2.698-14.068-2.698c-4.956,0-9.685,0.893-14.176,2.698c-4.458,1.812-8.389,4.297-11.768,7.512
	c-3.371,3.16-6.076,6.962-8.118,11.382c-2.009,4.396-3.032,9.205-3.032,14.348c0,5.151,1.023,9.928,3.032,14.334
	c2.042,4.405,4.748,8.202,8.118,11.405c3.379,3.167,7.309,5.674,11.768,7.457c4.491,1.816,9.22,2.726,14.176,2.726
	c4.868,0,9.596-0.909,14.068-2.726c4.516-1.783,8.482-4.29,11.867-7.457c3.377-3.203,6.056-7,8.089-11.405
	c2.041-4.406,3.068-9.183,3.068-14.334c0-5.143-1.028-9.951-3.068-14.348C433.477,445.895,430.798,442.093,427.421,438.933z
	 M420.563,472.053c-0.933,2.411-2.298,4.542-4.038,6.417c-1.734,1.853-3.846,3.364-6.399,4.484c-2.537,1.13-5.437,1.688-8.64,1.688
	c-3.216,0-6.098-0.558-8.64-1.688c-2.553-1.12-4.704-2.632-6.452-4.484c-1.728-1.875-3.055-4.006-3.991-6.417
	c-0.938-2.437-1.39-4.883-1.39-7.391c0-2.509,0.452-4.994,1.39-7.4c0.936-2.403,2.263-4.552,3.991-6.425
	c1.748-1.864,3.899-3.355,6.452-4.493c2.542-1.117,5.424-1.679,8.64-1.679c3.204,0,6.104,0.562,8.64,1.679
	c2.553,1.138,4.665,2.629,6.399,4.493c1.739,1.873,3.104,4.021,4.038,6.425c0.9,2.406,1.39,4.892,1.39,7.4
	C421.953,467.17,421.463,469.616,420.563,472.053z M364.185,492.473c-0.504-2.713-1.234-5.501-2.203-8.399
	c-0.975-2.918-2.209-5.629-3.689-8.212c-1.458-2.579-3.428-4.807-5.529-6.677c-2.077-1.854-4.449-3.081-7.449-3.646v-0.217
	c2-0.178,3.086-0.72,4.119-1.578c1.036-0.868,1.936-1.977,2.541-3.283c0.642-1.318,1.092-2.797,1.365-4.393
	c0.264-1.62,0.385-3.267,0.385-4.949c0-3.085-0.481-5.978-1.519-8.665c-1.052-2.72-2.562-5.099-4.587-7.11
	c-2.015-2.023-4.486-3.637-7.44-4.834c-2.907-1.183-6.309-1.787-10.179-1.787c-1.166,0-2.389,0.1-3.729,0.294
	c-1.301,0.182-2.615,0.398-3.847,0.612c-1.269,0.241-2.422,0.434-3.524,0.645c-1.107,0.187-2.573,0.282-3.338,0.282
	c-1.745,0-3.246-0.6-5.246-1.833v63.156c0,1.881,0.347,3.876-0.017,5.092c-0.345,1.174-0.454,2.029-1.337,3.029h20.739
	c-0.893-1-2.002-1.855-2.347-3.029c-0.366-1.216-1.038-3.211-1.038-5.092v-20.19c3,0.802,5.619,1.798,7.98,3.051
	c2.366,1.256,4.643,2.817,6.423,4.634c1.768,1.845,3.301,3.966,4.312,6.387c1.038,2.414,1.641,5.104,1.641,8.075
	c0,0.891-0.064,2.295-0.221,3.205c-0.172,0.938-0.497,1.96-0.989,2.96h22.103c-0.699-1-1.34-1.855-1.915-2.658
	C365.06,496.55,364.577,494.59,364.185,492.473z M335.027,456.06c-1.425,1.454-3.187,1.94-5.329,1.94h-1.238
	c-0.404,0-1.147,0.434-2.147,0.364v-14.665c1-0.066,1.743,1.301,2.147,1.301h1.238c2.142,0,3.903,0.011,5.329,1.467
	c1.432,1.444,2.128,2.736,2.128,4.805C337.155,453.336,336.459,454.624,335.027,456.06z M454.381,433.195
	c0.338,1.186,0.933,2.37,0.933,4.222v42.971c0,1.499-0.836,2.756-1.699,3.782c-0.869,1.015-2.762,1.544-5.213,1.544
	c-1.268,0-2.886-0.355-4.226-1.072c-1.343-0.699-1.862-1.415-3.862-2.121v19.599c1-0.699,1.336-1.203,1.863-1.491
	c0.568-0.278,1.382-0.432,2.285-0.432c1.003,0,2.091,0.066,3.122,0.188c1.038,0.115,2.209,0.199,3.499,0.199
	c3.758,0,6.857-0.671,9.328-2.022c2.471-1.351,4.476-3.038,5.935-5.036c1.481-1.992,2.981-4.172,3.616-6.511
	c0.604-2.354,1.352-4.573,1.352-6.627v-42.971c0-1.852-0.279-3.036,0.084-4.222c0.346-1.191,0.56-1.195,1.45-2.195h-20.766
	C452.979,432,454.019,432.004,454.381,433.195z M296.741,436.697c-2.24-2.352-4.955-4.273-8.229-5.756
	c-3.244-1.46-7.016-2.219-11.319-2.219c-1.175,0-2.437,0.1-3.742,0.294c-1.339,0.182-2.605,0.398-3.879,0.612
	c-1.24,0.241-2.418,0.434-3.486,0.645c-1.107,0.187-2.64,0.282-3.412,0.282c-1.749,0-4.361-0.6-5.361-1.833v63.156
	c0,1.881,0.433,3.876,0.098,5.092c-0.367,1.174-0.394,2.029-1.301,3.029h20.789c-0.919-1-2.117-1.855-2.491-3.029
	c-0.331-1.216-1.095-3.211-1.095-5.092v-13.601c2,0.191,2.955,0.284,4.23,0.284c3.806,0,7.559-0.655,10.677-1.984
	c3.144-1.316,5.964-3.119,8.172-5.398c2.206-2.283,3.991-4.93,5.19-7.938c1.194-2.986,1.825-6.162,1.825-9.51
	c0-3.023-0.535-6.029-1.674-9.024C300.603,441.715,298.941,439.037,296.741,436.697z M284.208,460.373
	c-1.737,1.5-3.938,2.248-6.659,2.248c-0.501,0-1.65-0.033-2.213-0.138c-0.566-0.104-1.022-0.256-2.022-0.433v-16.806
	c1-0.205,1.456-0.346,2.022-0.433c0.563-0.104,1.42-0.147,1.921-0.147c2.72,0,5.069,0.757,6.805,2.262
	c1.739,1.525,2.685,3.755,2.685,6.7C286.746,456.609,285.947,458.844,284.208,460.373z M179.94,393.632L169.926,401h213.388v-69.826
	l-5.665,2.698c-3.85,1.844-8.298,3.251-13.177,3.935c-5.121,0.697-10.133,1.193-14.917,1.193h-23.241v-15h11.131
	c3.448,0,6.846,0.123,10.15,0.648c3.135,0.5,6.179,1.381,9.59,2.744l5.128,2.094v-63.929l-5.136,2.166
	c-3.357,1.332-6.55,2.134-9.721,2.643c-3.296,0.52-6.549,0.634-10.011,0.634h-11.131v-13h23.241c4.753,0,9.756,0.616,14.897,1.334
	c4.866,0.668,9.341,2.064,13.196,3.904l5.665,2.799V196H248.617l6.134,6.967c1.95,2.13,2.943,4.609,3.679,7.236
	c0.814,2.861,0.884,5.864,0.884,8.602v159.644c0,2.72-0.052,5.568-0.884,8.405c-0.344,1.229-0.645,2.387-1.258,3.491
	c-1.3-1.384-2.187-2.891-2.858-4.554c-1.317-3.346-2.212-7.001-2.754-10.947l-21.99-151.716c-0.494-3.243-0.752-6.281-0.752-9.023
	c0-2.477,0.309-4.583,0.879-6.265c0.464-1.361,1.607-3.091,3.375-4.434l9.135-7.407h-84.074l-21.051,66.839L116.01,196H30.855
	l9.133,7.407c1.756,1.342,2.9,2.899,3.365,4.259c0.573,1.685,0.874,3.883,0.874,6.353c0,2.743-0.268,5.825-0.774,9.167
	L23.131,374.563c-0.86,4.011-1.938,7.856-3.187,11.377c-0.991,2.854-3.001,5.515-6.175,7.617L2.967,401h101.822l-10.035-7.368
	c-1.857-1.323-2.975-2.84-3.468-4.391c-0.602-2.008-0.92-4.345-0.92-6.883c0-4.638,0.318-9.479,0.927-14.415
	c0.637-5.14,1.261-10.117,1.812-15.055l4.126-52.288l39.216,112.137l40.988-112.683l4.16,52.808c0.377,4.864,0.933,9.9,1.682,15.125
	c0.695,4.929,1.07,9.727,1.07,14.315c0,2.535-0.325,4.87-0.925,6.878C182.916,390.731,181.799,392.309,179.94,393.632z
	 M266.08,207.922c-0.34-1.252-0.528-2.922-1.064-3.922h110.297v50.018c-4-1.011-6.336-2.068-9.801-2.547
	c-5.52-0.772-10.866-1.471-15.958-1.471h-31.241v29h19.131c3.883,0,7.337-0.207,11.02-0.795c2.045-0.312,4.849-0.699,5.849-1.318
	v41.252c-1-0.601-3.825-1-5.849-1.331c-3.7-0.565-7.156-0.808-11.02-0.808h-19.131v31h31.241c5.118,0,10.472-0.577,15.958-1.346
	c3.472-0.466,5.801-1.428,9.801-2.419V394H265.016c0.544-2,0.724-3.059,1.064-4.31c1.027-3.554,1.233-7.774,1.233-11.241V218.805
	C267.313,215.339,267.107,211.483,266.08,207.922z M183.941,282.643L183.097,279h-6.376l-40.138,110.299L98.94,281.634L97.495,279
	h-6.458l-5.762,73.129c-0.54,4.764-1.158,9.695-1.794,14.807c-0.645,5.25-0.998,10.409-0.998,15.37c0,3.313,0.446,7.062,1.29,9.787
	c0.135,0.416,0.292,0.907,0.424,1.907H25.408c0.822-2,1.475-3.337,2.003-4.789c1.318-3.823,2.482-8.283,3.473-12.953L51.24,224.549
	c0.569-3.672,0.871-7.203,0.871-10.359c0-3.351-0.468-6.664-1.337-9.18c-0.08-0.221-0.168-1.009-0.237-1.009h59.699l22.792,72.804
	l1.445,3.196h5.762l23.677-76h58.607c-0.109,0-0.191,0.747-0.248,0.969c-0.867,2.506-1.324,5.635-1.324,8.993
	c0,3.157,0.299,6.678,0.858,10.291l22.004,151.621c0.613,4.551,1.695,9.541,3.312,13.489c0.532,1.375,1.218,2.637,2.046,4.637
	h-58.671c0.136-1,0.3-1.481,0.428-1.897c0.849-2.728,1.298-6.146,1.298-9.468c0-4.957-0.401-10.316-1.16-15.591
	c-0.708-5.06-1.268-9.915-1.597-14.617L183.941,282.643z"/>
</svg>
